<?xml version="1.0" encoding="utf-8"?>
<!-- Generator: Adobe Illustrator 20.1.0, SVG Export Plug-In . SVG Version: 6.00 Build 0)  -->
<svg version="1.1" id="Layer_1" xmlns="http://www.w3.org/2000/svg" xmlns:xlink="http://www.w3.org/1999/xlink" x="0px" y="0px"
	 viewBox="0 0 368 214" style="enable-background:new 0 0 368 214;" xml:space="preserve">
<style type="text/css">
	.st0{fill:#EF4A4E;}
</style>
<path id="XMLID_2_" class="st0" d="M150.2,103.6c9.8,6.1,17,14.8,21.5,26.2c1.5,3.2,2.5,6.7,3.1,10.5c0.6,3.8,0.9,7.8,0.9,12
	c0,13.9-3.7,25.5-11,34.9c-7.3,9.4-18.1,16.4-32.2,20.9c-8.9,3-19.5,4.6-31.6,4.6H10c-2.7,0-5-1-7-3c-2-2-3-4.3-3-7v-20.5
	c0-2.8,1-5.3,3-7.3s4.3-3,7-3H103c10.8,0,19-2,24.5-6c4.6-3.6,6.8-8.7,6.8-15.4c0-6.6-2.4-12-7.1-16.2c-6.1-5.1-14.9-7.7-26.5-7.7
	H10c-2.7,0-5-1-7-3c-2-2-3-4.4-3-7.3V96.7c0-2.7,1-5,3-7c2-2,4.3-3,7-3h85.7c4.6,0,8.4-0.4,11.5-1.1c3.1-0.8,5.7-1.8,7.7-3
	c2-1.2,3.6-2.6,4.7-4.1c1.1-1.5,2.1-2.9,2.8-4.3c1.3-2.7,2-5.8,2-9.4c0-3.4-0.5-6.5-1.4-9.4c-0.8-2.3-2.1-4.4-4-6.3
	c-2.3-2.7-5.1-4.5-8.5-5.5c-3.4-1-7.5-1.6-12.2-1.6H10c-2.7,0-5-1-7-3c-2-2-3-4.4-3-7.3V11.4c0-2.7,1-5,3-7c2-2,4.3-3,7-3h85.7
	c23.5,0,41.6,6.6,54.3,19.9C160.6,32.1,166,45.7,166,62C166,79.5,160.7,93.3,150.2,103.6z"/>
<path id="XMLID_24_" class="st0" d="M358,1.4c2.7,0,5,1,7,3c2,2,3,4.4,3,7.3v20.8c0,2.8-1,5.3-3,7.3c-2,2-4.3,3-7,3h-29.3
	c-2.8,0-5.3-1-7.3-3s-3-4.4-3-7.3V11.6c0-2.8,1-5.3,3-7.3c2-2,4.4-3,7.3-3H358z M290.6,1.4c2.8,0,5.3,1,7.3,3c2,2,3,4.4,3,7.3v192.7
	c0,2.7-1,5-3,7c-2,2-4.4,3-7.3,3h-21.9c-2.7,0-5-1-7-3c-2-2-3-4.3-3-7V42.7h-57.2c-2.7,0-5-1-7-3c-2-2-3-4.4-3-7.3V11.6
	c0-2.8,1-5.3,3-7.3c2-2,4.3-3,7-3H290.6z"/>
</svg>
